<mxfile host="app.diagrams.net" modified="2024-07-02T23:57:47.012Z" agent="Mozilla/5.0 (Macintosh; Intel Mac OS X 10_15_7) AppleWebKit/537.36 (KHTML, like Gecko) Chrome/126.0.0.0 Safari/537.36" etag="71eDKHEeBh3zUoN11YAW" version="24.6.4" type="github">
  <diagram name="Page-1" id="197159a0-c6a4-9194-75a8-e4174976684c">
    <mxGraphModel dx="1468" dy="792" grid="1" gridSize="10" guides="1" tooltips="1" connect="1" arrows="1" fold="1" page="1" pageScale="1.5" pageWidth="1169" pageHeight="826" background="none" math="0" shadow="0">
      <root>
        <mxCell id="0" style=";html=1;" />
        <mxCell id="1" style=";html=1;" parent="0" />
        <mxCell id="1257a543d1cacc4b-52" value="Title" style="text;strokeColor=none;fillColor=none;html=1;fontSize=24;fontStyle=1;verticalAlign=middle;align=center;rounded=1;labelBackgroundColor=none;fontColor=#5C5C5C;" parent="1" vertex="1">
          <mxGeometry x="160" y="60" width="1420" height="40" as="geometry" />
        </mxCell>
        <mxCell id="teGqH42D44GFwxgmzyyM-1" value="DELL SERVER" style="rounded=1;whiteSpace=wrap;html=1;shadow=0;strokeColor=#006658;labelBackgroundColor=none;labelBorderColor=none;textShadow=0;fontStyle=1;fontSize=18;snapToPoint=0;fixDash=0;backgroundOutline=0;fillColor=#21C0A5;fontColor=#5C5C5C;" vertex="1" parent="1">
          <mxGeometry x="430" y="260" width="170" height="60" as="geometry" />
        </mxCell>
        <mxCell id="teGqH42D44GFwxgmzyyM-2" value="&lt;b style=&quot;font-size: 16px;&quot;&gt;&lt;font style=&quot;font-size: 16px;&quot;&gt;ONFINALITY NETWORK SUBNET 154.91.1.130-190/26&lt;/font&gt;&lt;/b&gt;" style="text;html=1;align=center;verticalAlign=middle;resizable=0;points=[];autosize=1;strokeColor=none;fillColor=none;labelBorderColor=none;labelBackgroundColor=none;shadow=0;snapToPoint=0;fixDash=0;backgroundOutline=0;rounded=1;fontColor=#5C5C5C;fontSize=16;" vertex="1" parent="1">
          <mxGeometry x="317" y="200" width="430" height="30" as="geometry" />
        </mxCell>
        <mxCell id="teGqH42D44GFwxgmzyyM-3" value="" style="points=[[0.015,0.015,0],[0.985,0.015,0],[0.985,0.985,0],[0.015,0.985,0],[0.25,0,0],[0.5,0,0],[0.75,0,0],[1,0.25,0],[1,0.5,0],[1,0.75,0],[0.75,1,0],[0.5,1,0],[0.25,1,0],[0,0.75,0],[0,0.5,0],[0,0.25,0]];verticalLabelPosition=bottom;html=1;verticalAlign=top;aspect=fixed;align=center;pointerEvents=1;shape=mxgraph.cisco19.rect;prIcon=firewall;fillColor=#21C0A5;strokeColor=#006658;shadow=0;labelBackgroundColor=none;labelBorderColor=none;textShadow=0;snapToPoint=0;fixDash=0;backgroundOutline=0;rounded=1;fontColor=#5C5C5C;" vertex="1" parent="1">
          <mxGeometry x="290" y="473.25" width="80" height="62.5" as="geometry" />
        </mxCell>
        <mxCell id="teGqH42D44GFwxgmzyyM-6" value="" style="points=[[0.015,0.015,0],[0.985,0.015,0],[0.985,0.985,0],[0.015,0.985,0],[0.25,0,0],[0.5,0,0],[0.75,0,0],[1,0.25,0],[1,0.5,0],[1,0.75,0],[0.75,1,0],[0.5,1,0],[0.25,1,0],[0,0.75,0],[0,0.5,0],[0,0.25,0]];verticalLabelPosition=bottom;html=1;verticalAlign=top;aspect=fixed;align=center;pointerEvents=1;shape=mxgraph.cisco19.rect;prIcon=workgroup_switch;fillColor=#21C0A5;strokeColor=#006658;labelBorderColor=none;labelBackgroundColor=none;shadow=0;snapToPoint=0;fixDash=0;backgroundOutline=0;rounded=1;fontColor=#5C5C5C;" vertex="1" parent="1">
          <mxGeometry x="478.99" y="547" width="72.03" height="72.03" as="geometry" />
        </mxCell>
        <mxCell id="teGqH42D44GFwxgmzyyM-7" value="&lt;b&gt;&lt;font style=&quot;font-size: 16px;&quot;&gt;Customer&#39;s&amp;nbsp;&lt;/font&gt;&lt;span style=&quot;color: rgb(23, 43, 77); font-family: -apple-system, &amp;quot;system-ui&amp;quot;, &amp;quot;Segoe UI&amp;quot;, Roboto, Oxygen, Ubuntu, &amp;quot;Fira Sans&amp;quot;, &amp;quot;Droid Sans&amp;quot;, &amp;quot;Helvetica Neue&amp;quot;, sans-serif; font-size: 16px; letter-spacing: -0.08px; text-align: left; white-space: pre-wrap; background-color: rgb(255, 255, 255);&quot;&gt;FS S5850-24T16B-CoreSwitch&lt;br&gt;&lt;/span&gt;&lt;font style=&quot;font-size: 16px;&quot;&gt;ETH-24&lt;/font&gt;&lt;/b&gt;" style="text;html=1;align=center;verticalAlign=middle;resizable=0;points=[];autosize=1;strokeColor=none;fillColor=none;labelBorderColor=none;labelBackgroundColor=none;shadow=0;snapToPoint=0;fixDash=0;backgroundOutline=0;rounded=1;fontColor=#5C5C5C;arcSize=35;" vertex="1" parent="1">
          <mxGeometry x="454.56999999999994" y="580" width="350" height="50" as="geometry" />
        </mxCell>
        <mxCell id="teGqH42D44GFwxgmzyyM-13" value="" style="outlineConnect=0;dashed=0;verticalLabelPosition=bottom;verticalAlign=top;align=center;html=1;shape=mxgraph.aws3.internet_gateway;fillColor=#21C0A5;rounded=1;labelBackgroundColor=none;strokeColor=#006658;fontColor=#5C5C5C;" vertex="1" parent="1">
          <mxGeometry x="480.5" y="870" width="69" height="72" as="geometry" />
        </mxCell>
        <mxCell id="teGqH42D44GFwxgmzyyM-14" value="&lt;span style=&quot;font-size: 16px;&quot;&gt;&lt;b&gt;103.26.92.146/30&lt;/b&gt;&lt;/span&gt;" style="text;html=1;align=center;verticalAlign=middle;resizable=0;points=[];autosize=1;strokeColor=none;fillColor=none;rounded=1;labelBackgroundColor=none;fontColor=#5C5C5C;" vertex="1" parent="1">
          <mxGeometry x="570" y="729" width="150" height="30" as="geometry" />
        </mxCell>
        <mxCell id="teGqH42D44GFwxgmzyyM-15" value="&lt;span style=&quot;font-size: 16px;&quot;&gt;&lt;b&gt;103.26.92.145/30&lt;/b&gt;&lt;/span&gt;" style="text;html=1;align=center;verticalAlign=middle;resizable=0;points=[];autosize=1;strokeColor=none;fillColor=none;rounded=1;labelBackgroundColor=none;fontColor=#5C5C5C;" vertex="1" parent="1">
          <mxGeometry x="565" y="891" width="150" height="30" as="geometry" />
        </mxCell>
        <mxCell id="teGqH42D44GFwxgmzyyM-16" value="&lt;b style=&quot;font-size: 16px;&quot;&gt;GW:103.26.92.145/30&lt;br&gt;&lt;/b&gt;" style="text;html=1;align=center;verticalAlign=middle;resizable=0;points=[];autosize=1;strokeColor=none;fillColor=none;rounded=1;labelBackgroundColor=none;fontColor=#5C5C5C;" vertex="1" parent="1">
          <mxGeometry x="200" y="812" width="180" height="30" as="geometry" />
        </mxCell>
        <mxCell id="teGqH42D44GFwxgmzyyM-17" value="&lt;b style=&quot;font-size: 16px;&quot;&gt;Host:103.26.92.146/30&lt;br&gt;&lt;/b&gt;" style="text;html=1;align=center;verticalAlign=middle;resizable=0;points=[];autosize=1;strokeColor=none;fillColor=none;rounded=1;labelBackgroundColor=none;fontColor=#5C5C5C;" vertex="1" parent="1">
          <mxGeometry x="200" y="840" width="190" height="30" as="geometry" />
        </mxCell>
        <mxCell id="teGqH42D44GFwxgmzyyM-22" style="edgeStyle=orthogonalEdgeStyle;rounded=1;orthogonalLoop=1;jettySize=auto;html=1;exitX=0.5;exitY=1;exitDx=0;exitDy=0;exitPerimeter=0;entryX=0.5;entryY=0;entryDx=0;entryDy=0;entryPerimeter=0;labelBackgroundColor=none;strokeColor=#006658;fontColor=default;" edge="1" parent="1" target="teGqH42D44GFwxgmzyyM-13">
          <mxGeometry relative="1" as="geometry">
            <mxPoint x="515" y="780.0000000000002" as="sourcePoint" />
          </mxGeometry>
        </mxCell>
        <mxCell id="teGqH42D44GFwxgmzyyM-70" value="" style="edgeLabel;html=1;align=center;verticalAlign=middle;resizable=0;points=[];strokeColor=#006658;fontColor=#5C5C5C;fillColor=#21C0A5;fontStyle=1;fontSize=16;" vertex="1" connectable="0" parent="teGqH42D44GFwxgmzyyM-22">
          <mxGeometry x="-0.0581" y="2" relative="1" as="geometry">
            <mxPoint as="offset" />
          </mxGeometry>
        </mxCell>
        <mxCell id="teGqH42D44GFwxgmzyyM-23" value="&lt;span style=&quot;font-size: 16px;&quot;&gt;&lt;b&gt;Customer&#39;s GW&lt;/b&gt;&lt;/span&gt;" style="text;html=1;align=center;verticalAlign=middle;resizable=0;points=[];autosize=1;strokeColor=none;fillColor=none;rounded=1;labelBackgroundColor=none;fontColor=#5C5C5C;" vertex="1" parent="1">
          <mxGeometry x="445" y="780" width="140" height="30" as="geometry" />
        </mxCell>
        <mxCell id="teGqH42D44GFwxgmzyyM-24" value="&lt;span style=&quot;font-size: 16px;&quot;&gt;&lt;b&gt;Telin&#39;s DataCenter&#39;s GW&lt;/b&gt;&lt;/span&gt;" style="text;html=1;align=center;verticalAlign=middle;resizable=0;points=[];autosize=1;strokeColor=none;fillColor=none;rounded=1;labelBackgroundColor=none;fontColor=#5C5C5C;" vertex="1" parent="1">
          <mxGeometry x="410" y="950" width="210" height="30" as="geometry" />
        </mxCell>
        <mxCell id="teGqH42D44GFwxgmzyyM-25" style="edgeStyle=orthogonalEdgeStyle;rounded=1;orthogonalLoop=1;jettySize=auto;html=1;entryX=0.5;entryY=0;entryDx=0;entryDy=0;entryPerimeter=0;labelBackgroundColor=none;strokeColor=#006658;fontColor=default;" edge="1" parent="1" source="teGqH42D44GFwxgmzyyM-6">
          <mxGeometry relative="1" as="geometry">
            <mxPoint x="515" y="708" as="targetPoint" />
          </mxGeometry>
        </mxCell>
        <mxCell id="teGqH42D44GFwxgmzyyM-26" style="edgeStyle=orthogonalEdgeStyle;rounded=1;orthogonalLoop=1;jettySize=auto;html=1;entryX=0.5;entryY=0;entryDx=0;entryDy=0;entryPerimeter=0;labelBorderColor=none;labelBackgroundColor=none;strokeColor=#006658;fontColor=default;" edge="1" parent="1" source="teGqH42D44GFwxgmzyyM-1" target="teGqH42D44GFwxgmzyyM-6">
          <mxGeometry relative="1" as="geometry" />
        </mxCell>
        <mxCell id="teGqH42D44GFwxgmzyyM-71" value="SDN" style="edgeLabel;html=1;align=center;verticalAlign=middle;resizable=0;points=[];strokeColor=#006658;fontColor=#5C5C5C;fillColor=#21C0A5;fontStyle=1" vertex="1" connectable="0" parent="teGqH42D44GFwxgmzyyM-26">
          <mxGeometry x="-0.1718" y="-1" relative="1" as="geometry">
            <mxPoint as="offset" />
          </mxGeometry>
        </mxCell>
        <mxCell id="teGqH42D44GFwxgmzyyM-81" value="ETH1" style="edgeLabel;html=1;align=center;verticalAlign=middle;resizable=0;points=[];strokeColor=#006658;fontColor=#5C5C5C;fillColor=#21C0A5;fontStyle=1" vertex="1" connectable="0" parent="teGqH42D44GFwxgmzyyM-26">
          <mxGeometry x="-0.6627" y="1" relative="1" as="geometry">
            <mxPoint as="offset" />
          </mxGeometry>
        </mxCell>
        <mxCell id="teGqH42D44GFwxgmzyyM-35" value="" style="outlineConnect=0;dashed=0;verticalLabelPosition=bottom;verticalAlign=top;align=center;html=1;shape=mxgraph.aws3.customer_gateway;fillColor=#21C0A5;strokeColor=#006658;fontColor=#5C5C5C;labelBackgroundColor=none;" vertex="1" parent="1">
          <mxGeometry x="480.5" y="708" width="69" height="72" as="geometry" />
        </mxCell>
        <mxCell id="teGqH42D44GFwxgmzyyM-36" value="&lt;span style=&quot;color: rgb(23, 43, 77); font-family: -apple-system, &amp;quot;system-ui&amp;quot;, &amp;quot;Segoe UI&amp;quot;, Roboto, Oxygen, Ubuntu, &amp;quot;Fira Sans&amp;quot;, &amp;quot;Droid Sans&amp;quot;, &amp;quot;Helvetica Neue&amp;quot;, sans-serif; font-size: 16px; font-style: normal; font-variant-ligatures: normal; font-variant-caps: normal; letter-spacing: -0.08px; orphans: 2; text-align: left; text-indent: 0px; text-transform: none; widows: 2; word-spacing: 0px; -webkit-text-stroke-width: 0px; white-space: pre-wrap; background-color: rgb(255, 255, 255); text-decoration-thickness: initial; text-decoration-style: initial; text-decoration-color: initial; float: none; display: inline !important;&quot;&gt;&lt;b style=&quot;color: rgb(92, 92, 92); font-family: Helvetica; font-size: 12px; letter-spacing: normal; text-align: center; white-space: nowrap; background-color: rgb(251, 251, 251);&quot;&gt;&lt;font style=&quot;font-size: 16px;&quot;&gt;Customer&#39;s&amp;nbsp;&lt;br&gt;&lt;/font&gt;&lt;/b&gt;FortiGate 61E&lt;/span&gt;" style="text;whiteSpace=wrap;html=1;fontColor=#5C5C5C;fontStyle=1" vertex="1" parent="1">
          <mxGeometry x="140" y="480" width="130" height="40" as="geometry" />
        </mxCell>
        <mxCell id="teGqH42D44GFwxgmzyyM-37" value="" style="sketch=0;points=[[0.015,0.015,0],[0.985,0.015,0],[0.985,0.985,0],[0.015,0.985,0],[0.25,0,0],[0.5,0,0],[0.75,0,0],[1,0.25,0],[1,0.5,0],[1,0.75,0],[0.75,1,0],[0.5,1,0],[0.25,1,0],[0,0.75,0],[0,0.5,0],[0,0.25,0]];verticalLabelPosition=bottom;html=1;verticalAlign=top;aspect=fixed;align=center;pointerEvents=1;shape=mxgraph.cisco19.rect;prIcon=l3_switch;fillColor=#FAFAFA;strokeColor=#005073;fontColor=#5C5C5C;" vertex="1" parent="1">
          <mxGeometry x="646.5" y="347.5" width="85" height="85" as="geometry" />
        </mxCell>
        <mxCell id="teGqH42D44GFwxgmzyyM-38" value="&lt;span style=&quot;color: rgb(23, 43, 77); font-family: -apple-system, &amp;quot;system-ui&amp;quot;, &amp;quot;Segoe UI&amp;quot;, Roboto, Oxygen, Ubuntu, &amp;quot;Fira Sans&amp;quot;, &amp;quot;Droid Sans&amp;quot;, &amp;quot;Helvetica Neue&amp;quot;, sans-serif; font-size: 16px; font-style: normal; font-variant-ligatures: normal; font-variant-caps: normal; letter-spacing: -0.08px; orphans: 2; text-align: left; text-indent: 0px; text-transform: none; widows: 2; word-spacing: 0px; -webkit-text-stroke-width: 0px; white-space: pre-wrap; background-color: rgb(255, 255, 255); text-decoration-thickness: initial; text-decoration-style: initial; text-decoration-color: initial; float: none; display: inline !important;&quot;&gt;&lt;b style=&quot;color: rgb(92, 92, 92); font-family: Helvetica; font-size: 12px; letter-spacing: normal; text-align: center; white-space: nowrap; background-color: rgb(251, 251, 251);&quot;&gt;&lt;font style=&quot;font-size: 16px;&quot;&gt;Customer&#39;s&amp;nbsp;&lt;br&gt;&lt;/font&gt;&lt;/b&gt;25G Switch-1&lt;/span&gt;" style="text;whiteSpace=wrap;html=1;fontColor=#5C5C5C;fontStyle=1" vertex="1" parent="1">
          <mxGeometry x="747" y="370" width="130" height="40" as="geometry" />
        </mxCell>
        <mxCell id="teGqH42D44GFwxgmzyyM-40" value="" style="sketch=0;points=[[0.015,0.015,0],[0.985,0.015,0],[0.985,0.985,0],[0.015,0.985,0],[0.25,0,0],[0.5,0,0],[0.75,0,0],[1,0.25,0],[1,0.5,0],[1,0.75,0],[0.75,1,0],[0.5,1,0],[0.25,1,0],[0,0.75,0],[0,0.5,0],[0,0.25,0]];verticalLabelPosition=bottom;html=1;verticalAlign=top;aspect=fixed;align=center;pointerEvents=1;shape=mxgraph.cisco19.rect;prIcon=l3_switch;fillColor=#FAFAFA;strokeColor=#005073;fontColor=#5C5C5C;" vertex="1" parent="1">
          <mxGeometry x="646.5" y="450.75" width="85" height="85" as="geometry" />
        </mxCell>
        <mxCell id="teGqH42D44GFwxgmzyyM-42" value="&lt;span style=&quot;color: rgb(23, 43, 77); font-family: -apple-system, &amp;quot;system-ui&amp;quot;, &amp;quot;Segoe UI&amp;quot;, Roboto, Oxygen, Ubuntu, &amp;quot;Fira Sans&amp;quot;, &amp;quot;Droid Sans&amp;quot;, &amp;quot;Helvetica Neue&amp;quot;, sans-serif; font-size: 16px; font-style: normal; font-variant-ligatures: normal; font-variant-caps: normal; letter-spacing: -0.08px; orphans: 2; text-align: left; text-indent: 0px; text-transform: none; widows: 2; word-spacing: 0px; -webkit-text-stroke-width: 0px; white-space: pre-wrap; background-color: rgb(255, 255, 255); text-decoration-thickness: initial; text-decoration-style: initial; text-decoration-color: initial; float: none; display: inline !important;&quot;&gt;&lt;b style=&quot;color: rgb(92, 92, 92); font-family: Helvetica; font-size: 12px; letter-spacing: normal; text-align: center; white-space: nowrap; background-color: rgb(251, 251, 251);&quot;&gt;&lt;font style=&quot;font-size: 16px;&quot;&gt;Customer&#39;s&amp;nbsp;&lt;br&gt;&lt;/font&gt;&lt;/b&gt;25G Switch-2&lt;/span&gt;" style="text;whiteSpace=wrap;html=1;fontColor=#5C5C5C;fontStyle=1" vertex="1" parent="1">
          <mxGeometry x="747" y="470" width="130" height="40" as="geometry" />
        </mxCell>
        <mxCell id="teGqH42D44GFwxgmzyyM-48" value="&lt;div style=&quot;text-align: center;&quot;&gt;&lt;b style=&quot;background-color: initial; text-wrap: nowrap; font-size: 16px;&quot;&gt;Customer&#39;s &lt;br&gt;&lt;/b&gt;&lt;span style=&quot;font-size: 16px; text-wrap: nowrap;&quot;&gt;IDARC Switch&lt;/span&gt;&lt;/div&gt;" style="text;whiteSpace=wrap;html=1;fontColor=#5C5C5C;fontStyle=1" vertex="1" parent="1">
          <mxGeometry x="140" y="370" width="130" height="40" as="geometry" />
        </mxCell>
        <mxCell id="teGqH42D44GFwxgmzyyM-58" style="edgeStyle=orthogonalEdgeStyle;rounded=0;orthogonalLoop=1;jettySize=auto;html=1;strokeColor=#006658;fontColor=#5C5C5C;fillColor=#21C0A5;entryX=0.985;entryY=0.015;entryDx=0;entryDy=0;entryPerimeter=0;" edge="1" parent="1" target="teGqH42D44GFwxgmzyyM-6">
          <mxGeometry relative="1" as="geometry">
            <mxPoint x="644.98" y="473.2533333333333" as="sourcePoint" />
            <mxPoint x="550" y="540" as="targetPoint" />
          </mxGeometry>
        </mxCell>
        <mxCell id="teGqH42D44GFwxgmzyyM-66" value="DAC" style="edgeLabel;html=1;align=center;verticalAlign=middle;resizable=0;points=[];strokeColor=#006658;fontColor=#5C5C5C;fillColor=#21C0A5;fontStyle=1" vertex="1" connectable="0" parent="teGqH42D44GFwxgmzyyM-58">
          <mxGeometry x="-0.6129" y="-2" relative="1" as="geometry">
            <mxPoint x="1" as="offset" />
          </mxGeometry>
        </mxCell>
        <mxCell id="teGqH42D44GFwxgmzyyM-59" style="edgeStyle=orthogonalEdgeStyle;rounded=0;orthogonalLoop=1;jettySize=auto;html=1;entryX=0.75;entryY=0;entryDx=0;entryDy=0;entryPerimeter=0;strokeColor=#006658;fontColor=#5C5C5C;fillColor=#21C0A5;" edge="1" parent="1" source="teGqH42D44GFwxgmzyyM-37" target="teGqH42D44GFwxgmzyyM-6">
          <mxGeometry relative="1" as="geometry" />
        </mxCell>
        <mxCell id="teGqH42D44GFwxgmzyyM-65" value="DAC" style="edgeLabel;html=1;align=center;verticalAlign=middle;resizable=0;points=[];strokeColor=#006658;fontColor=#5C5C5C;fillColor=#21C0A5;fontStyle=1" vertex="1" connectable="0" parent="teGqH42D44GFwxgmzyyM-59">
          <mxGeometry x="-0.5284" y="1" relative="1" as="geometry">
            <mxPoint x="1" as="offset" />
          </mxGeometry>
        </mxCell>
        <mxCell id="teGqH42D44GFwxgmzyyM-62" style="edgeStyle=orthogonalEdgeStyle;rounded=0;orthogonalLoop=1;jettySize=auto;html=1;exitX=0.25;exitY=1;exitDx=0;exitDy=0;exitPerimeter=0;entryX=0.25;entryY=0;entryDx=0;entryDy=0;entryPerimeter=0;strokeColor=#006658;fontColor=#5C5C5C;fillColor=#21C0A5;" edge="1" parent="1" source="teGqH42D44GFwxgmzyyM-37" target="teGqH42D44GFwxgmzyyM-40">
          <mxGeometry relative="1" as="geometry" />
        </mxCell>
        <mxCell id="teGqH42D44GFwxgmzyyM-63" style="edgeStyle=orthogonalEdgeStyle;rounded=0;orthogonalLoop=1;jettySize=auto;html=1;exitX=0.75;exitY=0;exitDx=0;exitDy=0;exitPerimeter=0;entryX=0.75;entryY=1;entryDx=0;entryDy=0;entryPerimeter=0;strokeColor=#006658;fontColor=#5C5C5C;fillColor=#21C0A5;" edge="1" parent="1" source="teGqH42D44GFwxgmzyyM-40" target="teGqH42D44GFwxgmzyyM-37">
          <mxGeometry relative="1" as="geometry" />
        </mxCell>
        <mxCell id="teGqH42D44GFwxgmzyyM-64" value="" style="sketch=0;points=[[0.015,0.015,0],[0.985,0.015,0],[0.985,0.985,0],[0.015,0.985,0],[0.25,0,0],[0.5,0,0],[0.75,0,0],[1,0.25,0],[1,0.5,0],[1,0.75,0],[0.75,1,0],[0.5,1,0],[0.25,1,0],[0,0.75,0],[0,0.5,0],[0,0.25,0]];verticalLabelPosition=bottom;html=1;verticalAlign=top;aspect=fixed;align=center;pointerEvents=1;shape=mxgraph.cisco19.rect;prIcon=l3_switch;fillColor=#FAFAFA;strokeColor=#005073;fontColor=#5C5C5C;" vertex="1" parent="1">
          <mxGeometry x="290" y="357.5" width="85" height="85" as="geometry" />
        </mxCell>
        <mxCell id="teGqH42D44GFwxgmzyyM-67" value="DAC" style="edgeLabel;html=1;align=center;verticalAlign=middle;resizable=0;points=[];strokeColor=#006658;fontColor=#5C5C5C;fillColor=#21C0A5;fontStyle=1" vertex="1" connectable="0" parent="1">
          <mxGeometry x="593.2142857142858" y="401.0000000000002" as="geometry">
            <mxPoint x="139" y="40" as="offset" />
          </mxGeometry>
        </mxCell>
        <mxCell id="teGqH42D44GFwxgmzyyM-72" style="edgeStyle=orthogonalEdgeStyle;rounded=0;orthogonalLoop=1;jettySize=auto;html=1;entryX=0.5;entryY=0;entryDx=0;entryDy=0;entryPerimeter=0;strokeColor=#006658;fontColor=#5C5C5C;fillColor=#21C0A5;" edge="1" parent="1" source="teGqH42D44GFwxgmzyyM-1" target="teGqH42D44GFwxgmzyyM-64">
          <mxGeometry relative="1" as="geometry" />
        </mxCell>
        <mxCell id="teGqH42D44GFwxgmzyyM-73" value="IDARC" style="edgeLabel;html=1;align=center;verticalAlign=middle;resizable=0;points=[];strokeColor=#006658;fontColor=#5C5C5C;fillColor=#21C0A5;fontStyle=1" vertex="1" connectable="0" parent="teGqH42D44GFwxgmzyyM-72">
          <mxGeometry x="-0.1841" y="-3" relative="1" as="geometry">
            <mxPoint x="47" as="offset" />
          </mxGeometry>
        </mxCell>
        <mxCell id="teGqH42D44GFwxgmzyyM-76" style="edgeStyle=orthogonalEdgeStyle;rounded=0;orthogonalLoop=1;jettySize=auto;html=1;entryX=0.5;entryY=0;entryDx=0;entryDy=0;entryPerimeter=0;strokeColor=#006658;fontColor=#5C5C5C;fillColor=#21C0A5;" edge="1" parent="1" source="teGqH42D44GFwxgmzyyM-1" target="teGqH42D44GFwxgmzyyM-37">
          <mxGeometry relative="1" as="geometry" />
        </mxCell>
        <mxCell id="teGqH42D44GFwxgmzyyM-77" value="25G" style="edgeLabel;html=1;align=center;verticalAlign=middle;resizable=0;points=[];strokeColor=#006658;fontColor=#5C5C5C;fillColor=#21C0A5;fontStyle=1" vertex="1" connectable="0" parent="teGqH42D44GFwxgmzyyM-76">
          <mxGeometry x="-0.0463" y="5" relative="1" as="geometry">
            <mxPoint as="offset" />
          </mxGeometry>
        </mxCell>
        <mxCell id="teGqH42D44GFwxgmzyyM-83" value="BOND" style="edgeLabel;html=1;align=center;verticalAlign=middle;resizable=0;points=[];strokeColor=#006658;fontColor=#5C5C5C;fillColor=#21C0A5;fontStyle=1" vertex="1" connectable="0" parent="teGqH42D44GFwxgmzyyM-76">
          <mxGeometry x="-0.8849" y="5" relative="1" as="geometry">
            <mxPoint x="11" y="15" as="offset" />
          </mxGeometry>
        </mxCell>
        <mxCell id="teGqH42D44GFwxgmzyyM-79" style="edgeStyle=orthogonalEdgeStyle;rounded=0;orthogonalLoop=1;jettySize=auto;html=1;exitX=0.5;exitY=0;exitDx=0;exitDy=0;entryX=1;entryY=0.5;entryDx=0;entryDy=0;entryPerimeter=0;strokeColor=#006658;fontColor=#5C5C5C;fillColor=#21C0A5;" edge="1" parent="1" source="teGqH42D44GFwxgmzyyM-1" target="teGqH42D44GFwxgmzyyM-40">
          <mxGeometry relative="1" as="geometry" />
        </mxCell>
        <mxCell id="teGqH42D44GFwxgmzyyM-80" value="25G" style="edgeLabel;html=1;align=center;verticalAlign=middle;resizable=0;points=[];strokeColor=#006658;fontColor=#5C5C5C;fillColor=#21C0A5;fontStyle=1" vertex="1" connectable="0" parent="teGqH42D44GFwxgmzyyM-79">
          <mxGeometry x="0.156" y="3" relative="1" as="geometry">
            <mxPoint as="offset" />
          </mxGeometry>
        </mxCell>
        <mxCell id="teGqH42D44GFwxgmzyyM-84" value="BOND" style="edgeLabel;html=1;align=center;verticalAlign=middle;resizable=0;points=[];strokeColor=#006658;fontColor=#5C5C5C;fillColor=#21C0A5;fontStyle=1" vertex="1" connectable="0" parent="1">
          <mxGeometry x="629.5714285714287" y="310.0000000000002" as="geometry">
            <mxPoint x="-146" y="-64" as="offset" />
          </mxGeometry>
        </mxCell>
        <mxCell id="teGqH42D44GFwxgmzyyM-87" style="edgeStyle=orthogonalEdgeStyle;rounded=0;orthogonalLoop=1;jettySize=auto;html=1;exitX=1;exitY=0.5;exitDx=0;exitDy=0;exitPerimeter=0;entryX=0.25;entryY=0;entryDx=0;entryDy=0;entryPerimeter=0;strokeColor=#006658;fontColor=#5C5C5C;fillColor=#21C0A5;fontStyle=1" edge="1" parent="1" source="teGqH42D44GFwxgmzyyM-64" target="teGqH42D44GFwxgmzyyM-6">
          <mxGeometry relative="1" as="geometry" />
        </mxCell>
        <mxCell id="teGqH42D44GFwxgmzyyM-88" style="edgeStyle=orthogonalEdgeStyle;rounded=0;orthogonalLoop=1;jettySize=auto;html=1;entryX=0.015;entryY=0.015;entryDx=0;entryDy=0;entryPerimeter=0;strokeColor=#006658;fontColor=#5C5C5C;fillColor=#21C0A5;fontSize=13;" edge="1" parent="1" source="teGqH42D44GFwxgmzyyM-3" target="teGqH42D44GFwxgmzyyM-6">
          <mxGeometry relative="1" as="geometry" />
        </mxCell>
      </root>
    </mxGraphModel>
  </diagram>
</mxfile>
